<svg width="20" height="20" viewBox="0 0 20 20" fill="none" xmlns="http://www.w3.org/2000/svg">
<g id="tdesign:logo-github-filled" clip-path="url(#clip0_2883_3050)">
<path id="Vector" d="M9.99967 0.83252C4.93801 0.83252 0.833008 5.04085 0.833008 10.2309C0.833008 14.3834 3.45967 17.9059 7.10217 19.1492C7.56051 19.2359 7.70801 18.9442 7.70801 18.6967V16.9467C5.15801 17.5159 4.62717 15.8384 4.62717 15.8384C4.21051 14.7517 3.60884 14.4634 3.60884 14.4634C2.77717 13.88 3.67217 13.8917 3.67217 13.8917C4.59301 13.9584 5.07717 14.8609 5.07717 14.8609C5.89384 16.2975 7.22134 15.8825 7.74467 15.6417C7.82634 15.035 8.06384 14.62 8.32634 14.385C6.29134 14.1467 4.15134 13.3409 4.15134 9.74002C4.15134 8.71335 4.50884 7.87585 5.09467 7.21752C4.99967 6.98002 4.68634 6.02419 5.18384 4.73002C5.18384 4.73002 5.95384 4.47752 7.70551 5.69335C8.43634 5.48502 9.22051 5.38085 9.99967 5.37669C10.7788 5.38085 11.563 5.48502 12.2955 5.69335C14.0455 4.47752 14.8147 4.73002 14.8147 4.73002C15.313 6.02502 14.9997 6.98085 14.9047 7.21752C15.493 7.87585 15.848 8.71419 15.848 9.74002C15.848 13.35 13.7038 14.145 11.663 14.3775C11.9913 14.6692 12.2913 15.2409 12.2913 16.1175V18.6967C12.2913 18.9467 12.438 19.24 12.903 19.1484C16.543 17.9034 19.1663 14.3817 19.1663 10.2309C19.1663 5.04002 15.0622 0.83252 9.99967 0.83252Z" fill="white"/>
</g>
<defs>
<clipPath id="clip0_2883_3050">
<rect width="20" height="20" fill="white"/>
</clipPath>
</defs>
</svg>
