<svg width="151" height="44" viewBox="0 0 151 44" fill="none" xmlns="http://www.w3.org/2000/svg">
<g clip-path="url(#clip0_2024_5735)">
<path d="M15.6667 19.5933L16.7124 22.6817H14.3535L15.46 19.5933H15.6667ZM21.3086 24.3354H19.582V24.9433H23.8377V24.3354H22.1354V19.4717H23.8377V18.8637H19.582V19.4717H21.3086V24.3354ZM13.5389 24.9433L14.1225 23.314H16.9313L17.4784 24.9433H18.3782L16.1896 18.8637H14.9493L12.7242 24.9433H13.5389ZM27.2301 30.7311H9.76953V13.2705H27.2301V30.7311Z" fill="#F7F7F7"/>
<path d="M20.1992 38.4999C27.9933 37.6974 34.1945 31.4962 34.997 23.7021H32.9421C32.2125 30.4626 27.0935 35.8492 20.1992 36.6152V38.4999Z" fill="#F7F7F7"/>
<path d="M2 23.7021C2.80251 31.4962 9.00368 37.6974 16.7977 38.4999V36.6152C9.90346 35.8492 4.79661 30.4505 4.0549 23.7021H2Z" fill="#F7F7F7"/>
<path d="M34.997 20.2977C34.1945 12.5037 27.9933 6.30251 20.1992 5.5V7.38467C27.0935 8.1507 32.2004 13.5494 32.9421 20.2977H34.997Z" fill="#F7F7F7"/>
<path d="M16.7977 5.5C9.00369 6.30251 2.80251 12.5037 2 20.2977H4.0549C4.78445 13.5372 9.90346 8.1507 16.7977 7.38467V5.5Z" fill="#F7F7F7"/>
</g>
<path d="M51.92 16.2C51.92 16.0667 51.9867 16 52.12 16H53.64C53.7733 16 53.84 16.0667 53.84 16.2V29.8C53.84 29.9333 53.7733 30 53.64 30H52.12C51.9867 30 51.92 29.9333 51.92 29.8V23.86C51.92 23.8067 51.8933 23.78 51.84 23.78H46.14C46.0867 23.78 46.06 23.8067 46.06 23.86V29.8C46.06 29.9333 45.9933 30 45.86 30H44.34C44.2067 30 44.14 29.9333 44.14 29.8V16.2C44.14 16.0667 44.2067 16 44.34 16H45.86C45.9933 16 46.06 16.0667 46.06 16.2V22.04C46.06 22.0933 46.0867 22.12 46.14 22.12H51.84C51.8933 22.12 51.92 22.0933 51.92 22.04V16.2ZM61.5906 30.18C60.6173 30.18 59.7573 29.98 59.0106 29.58C58.264 29.18 57.684 28.62 57.2706 27.9C56.8573 27.1667 56.6506 26.3267 56.6506 25.38V20.62C56.6506 19.6733 56.8573 18.84 57.2706 18.12C57.684 17.4 58.264 16.84 59.0106 16.44C59.7573 16.04 60.6173 15.84 61.5906 15.84C62.5773 15.84 63.444 16.04 64.1906 16.44C64.9373 16.84 65.5173 17.4 65.9306 18.12C66.344 18.84 66.5506 19.6733 66.5506 20.62V25.38C66.5506 26.3267 66.344 27.1667 65.9306 27.9C65.5173 28.62 64.9373 29.18 64.1906 29.58C63.444 29.98 62.5773 30.18 61.5906 30.18ZM61.5906 28.52C62.4973 28.52 63.2306 28.24 63.7906 27.68C64.3506 27.12 64.6306 26.38 64.6306 25.46V20.6C64.6306 19.6667 64.3506 18.92 63.7906 18.36C63.2306 17.7867 62.4973 17.5 61.5906 17.5C60.684 17.5 59.9506 17.7867 59.3906 18.36C58.844 18.92 58.5706 19.6667 58.5706 20.6V25.46C58.5706 26.38 58.844 27.12 59.3906 27.68C59.9506 28.24 60.684 28.52 61.5906 28.52ZM78.532 16.12C78.5987 16.04 78.6787 16 78.772 16H80.292C80.4254 16 80.492 16.0667 80.492 16.2V29.8C80.492 29.9333 80.4254 30 80.292 30H78.772C78.6387 30 78.572 29.9333 78.572 29.8V19.56C78.572 19.52 78.5587 19.4933 78.532 19.48C78.5054 19.4667 78.4854 19.48 78.472 19.52L75.612 23.88C75.5587 23.96 75.4787 24 75.372 24H74.612C74.5187 24 74.4387 23.96 74.372 23.88L71.492 19.56C71.4787 19.52 71.4587 19.5067 71.432 19.52C71.4054 19.5333 71.392 19.56 71.392 19.6V29.8C71.392 29.9333 71.3254 30 71.192 30H69.672C69.5387 30 69.472 29.9333 69.472 29.8V16.2C69.472 16.0667 69.5387 16 69.672 16H71.192C71.2987 16 71.3787 16.04 71.432 16.12L74.932 21.36C74.9454 21.3733 74.9654 21.38 74.992 21.38C75.0187 21.38 75.0387 21.3733 75.052 21.36L78.532 16.12ZM93.0689 17.46C93.0689 17.5933 93.0022 17.66 92.8689 17.66H85.7689C85.7156 17.66 85.6889 17.6867 85.6889 17.74V22.04C85.6889 22.0933 85.7156 22.12 85.7689 22.12H90.6489C90.7822 22.12 90.8489 22.1867 90.8489 22.32V23.58C90.8489 23.7133 90.7822 23.78 90.6489 23.78H85.7689C85.7156 23.78 85.6889 23.8067 85.6889 23.86V28.26C85.6889 28.3133 85.7156 28.34 85.7689 28.34H92.8689C93.0022 28.34 93.0689 28.4067 93.0689 28.54V29.8C93.0689 29.9333 93.0022 30 92.8689 30H83.9689C83.8356 30 83.7689 29.9333 83.7689 29.8V16.2C83.7689 16.0667 83.8356 16 83.9689 16H92.8689C93.0022 16 93.0689 16.0667 93.0689 16.2V17.46ZM103.182 22.7C103.115 22.74 103.115 22.78 103.182 22.82C104.595 23.42 105.302 24.5333 105.302 26.16C105.302 27.3867 104.895 28.3333 104.082 29C103.269 29.6667 102.209 30 100.902 30H95.922C95.7887 30 95.722 29.9333 95.722 29.8V16.2C95.722 16.0667 95.7887 16 95.922 16H100.742C102.129 16 103.202 16.32 103.962 16.96C104.735 17.5867 105.122 18.5067 105.122 19.72C105.122 21.16 104.475 22.1533 103.182 22.7ZM97.722 17.66C97.6687 17.66 97.642 17.6867 97.642 17.74V21.96C97.642 22.0133 97.6687 22.04 97.722 22.04H100.742C101.515 22.04 102.122 21.8467 102.562 21.46C103.015 21.0733 103.242 20.5467 103.242 19.88C103.242 19.2 103.015 18.66 102.562 18.26C102.122 17.86 101.515 17.66 100.742 17.66H97.722ZM100.902 28.32C101.662 28.32 102.262 28.1133 102.702 27.7C103.155 27.2733 103.382 26.7 103.382 25.98C103.382 25.26 103.155 24.6933 102.702 24.28C102.249 23.8533 101.629 23.64 100.842 23.64H97.722C97.6687 23.64 97.642 23.6667 97.642 23.72V28.24C97.642 28.2933 97.6687 28.32 97.722 28.32H100.902ZM116.117 30C115.997 30 115.917 29.9467 115.877 29.84L115.157 27.5C115.143 27.46 115.117 27.44 115.077 27.44H109.457C109.417 27.44 109.39 27.46 109.377 27.5L108.657 29.84C108.617 29.9467 108.537 30 108.417 30H106.797C106.65 30 106.597 29.9267 106.637 29.78L111.017 16.16C111.057 16.0533 111.137 16 111.257 16H113.257C113.377 16 113.457 16.0533 113.497 16.16L117.917 29.78L117.937 29.86C117.937 29.9533 117.877 30 117.757 30H116.117ZM109.877 25.82C109.863 25.8467 109.863 25.8733 109.877 25.9C109.903 25.9133 109.93 25.92 109.957 25.92H114.557C114.583 25.92 114.603 25.9133 114.617 25.9C114.643 25.8733 114.65 25.8467 114.637 25.82L112.317 18.4C112.303 18.3733 112.283 18.36 112.257 18.36C112.23 18.36 112.21 18.3733 112.197 18.4L109.877 25.82ZM123.753 30.16C122.726 30.16 121.833 30 121.073 29.68C120.326 29.36 119.746 28.9067 119.333 28.32C118.933 27.7333 118.733 27.0467 118.733 26.26V25.68C118.733 25.5467 118.8 25.48 118.933 25.48H120.393C120.526 25.48 120.593 25.5467 120.593 25.68V26.16C120.593 26.84 120.886 27.4 121.473 27.84C122.06 28.28 122.866 28.5 123.893 28.5C124.813 28.5 125.506 28.3067 125.973 27.92C126.44 27.5333 126.673 27.0267 126.673 26.4C126.673 25.9867 126.553 25.6333 126.313 25.34C126.073 25.0467 125.72 24.78 125.253 24.54C124.8 24.2867 124.133 23.9867 123.253 23.64C122.28 23.2667 121.506 22.9267 120.933 22.62C120.373 22.3133 119.906 21.9133 119.533 21.42C119.16 20.9133 118.973 20.28 118.973 19.52C118.973 18.3733 119.38 17.4733 120.193 16.82C121.02 16.1667 122.133 15.84 123.533 15.84C124.52 15.84 125.386 16.0067 126.133 16.34C126.88 16.6733 127.453 17.14 127.853 17.74C128.266 18.34 128.473 19.0333 128.473 19.82V20.22C128.473 20.3533 128.406 20.42 128.273 20.42H126.773C126.64 20.42 126.573 20.3533 126.573 20.22V19.92C126.573 19.2267 126.293 18.6533 125.733 18.2C125.186 17.7333 124.426 17.5 123.453 17.5C122.626 17.5 121.986 17.6733 121.533 18.02C121.08 18.3533 120.853 18.84 120.853 19.48C120.853 19.92 120.966 20.28 121.193 20.56C121.42 20.84 121.753 21.0933 122.193 21.32C122.646 21.5333 123.333 21.8133 124.253 22.16C125.2 22.5333 125.966 22.88 126.553 23.2C127.14 23.5067 127.626 23.92 128.013 24.44C128.4 24.9467 128.593 25.58 128.593 26.34C128.593 27.5133 128.16 28.4467 127.293 29.14C126.44 29.82 125.26 30.16 123.753 30.16ZM140.491 17.46C140.491 17.5933 140.424 17.66 140.291 17.66H133.191C133.137 17.66 133.111 17.6867 133.111 17.74V22.04C133.111 22.0933 133.137 22.12 133.191 22.12H138.071C138.204 22.12 138.271 22.1867 138.271 22.32V23.58C138.271 23.7133 138.204 23.78 138.071 23.78H133.191C133.137 23.78 133.111 23.8067 133.111 23.86V28.26C133.111 28.3133 133.137 28.34 133.191 28.34H140.291C140.424 28.34 140.491 28.4067 140.491 28.54V29.8C140.491 29.9333 140.424 30 140.291 30H131.391C131.257 30 131.191 29.9333 131.191 29.8V16.2C131.191 16.0667 131.257 16 131.391 16H140.291C140.424 16 140.491 16.0667 140.491 16.2V17.46Z" fill="#F7F7F7"/>
<defs>
<clipPath id="clip0_2024_5735">
<rect width="33" height="33" fill="white" transform="translate(2 5.5)"/>
</clipPath>
</defs>
</svg>
