<svg width="20" height="13" viewBox="0 0 20 13" fill="none" xmlns="http://www.w3.org/2000/svg">
<g clip-path="url(#clip0_226_63)">
<path d="M7.8939 6.96534L9.16737 8.67963L8.72656 12.3041C8.67758 12.5 8.77554 12.696 8.97145 12.7939C9.11839 12.8919 9.31431 12.8919 9.46125 12.7939L19.3551 7.11228C19.6 6.96534 19.649 6.72045 19.551 6.47555C19.5021 6.37759 19.4531 6.32861 19.3551 6.27963L9.46125 0.549019C9.21635 0.40208 8.97145 0.50004 8.82452 0.744937C8.77554 0.842897 8.77554 0.940856 8.77554 1.03881L9.26533 4.6633L7.8939 6.37759C7.79594 6.57351 7.79594 6.76943 7.8939 6.96534ZM18.8653 6.67147L9.36329 12.2062L9.80411 8.77759L14.1143 7.0633C14.3592 6.96534 14.4572 6.67147 14.3592 6.42657C14.3102 6.32861 14.2123 6.23065 14.1143 6.18167L9.80411 4.46739L9.36329 1.08779L18.8653 6.67147ZM9.70615 5.20208L13.5266 6.62249L9.65717 8.14085L8.53064 6.67147L9.70615 5.20208Z" fill="#DBEDFD"/>
<path d="M8.53063 6.96532H0.546963C0.546963 6.96532 0.400024 6.81838 0.400024 6.67144C0.400024 6.47552 0.546963 6.37756 0.546963 6.37756H8.53063V6.96532Z" fill="#DBEDFD"/>
</g>
<defs>
<clipPath id="clip0_226_63">
<rect width="19.2" height="12.3429" fill="white" transform="translate(0.400024 0.5)"/>
</clipPath>
</defs>
</svg>
