<svg width="46" height="18" viewBox="0 0 46 18" fill="none" xmlns="http://www.w3.org/2000/svg">
<path d="M17.0625 1.875H24.9375V3.9375C24.9375 5.115 24.42 6.1725 23.6003 6.894C25.0043 7.48215 26.1694 8.52599 26.9078 9.85725L27.2715 10.5135L25.959 11.241L25.596 10.5847C25.0331 9.56529 24.1473 8.7619 23.0778 8.30101C22.0084 7.84011 20.8161 7.74787 19.6885 8.03879C18.5608 8.32971 17.562 8.98728 16.849 9.90804C16.136 10.8288 15.7494 11.9605 15.75 13.125V13.5C15.75 13.8978 15.908 14.2794 16.1893 14.5607C16.4706 14.842 16.8522 15 17.25 15H22.5V16.5H17.25C16.4544 16.5 15.6913 16.1839 15.1287 15.6213C14.5661 15.0587 14.25 14.2956 14.25 13.5V13.125C14.2499 11.7929 14.6439 10.4905 15.3823 9.38174C16.1207 8.27299 17.1705 7.40744 18.3997 6.894C17.9791 6.52491 17.6422 6.07019 17.4115 5.5603C17.1809 5.05041 17.0619 4.49712 17.0625 3.9375V1.875ZM21 6.375C21.6465 6.375 22.2665 6.11819 22.7236 5.66107C23.1807 5.20395 23.4375 4.58397 23.4375 3.9375V3.375H18.5625V3.9375C18.5625 4.58397 18.8193 5.20395 19.2764 5.66107C19.7335 6.11819 20.3535 6.375 21 6.375ZM24 12H29.25V13.5H24V12ZM24 15H29.25V16.5H24V15Z" fill="#B4B7BB"/>
</svg>
