<svg width="32" height="32" viewBox="0 0 32 32" fill="none" xmlns="http://www.w3.org/2000/svg">
<path d="M1 14.4466H2.62849C2.67229 14.0593 2.73201 13.676 2.80766 13.2927C2.97887 12.4325 3.23768 11.5844 3.56816 10.7771C3.89465 9.98206 4.30078 9.21555 4.77459 8.49796C5.24442 7.78445 5.78194 7.11579 6.37521 6.50829C6.96847 5.90079 7.62146 5.34629 8.31825 4.86926C9.01901 4.38407 9.76756 3.9682 10.544 3.63387C11.3323 3.29546 12.1605 3.03044 13.0006 2.85512C13.3709 2.77766 13.7452 2.7165 14.1275 2.67165V1C7.21135 1.72574 1.70873 7.36043 1 14.4466ZM28.6684 17.5534C28.6246 17.9407 28.5649 18.324 28.4892 18.7073C28.318 19.5675 28.0592 20.4156 27.7287 21.2229C27.4022 22.0179 26.9961 22.7845 26.5223 23.502C26.0525 24.2155 25.5149 24.8842 24.9217 25.4917C24.3284 26.0992 23.6754 26.6537 22.9786 27.1307C22.2779 27.6159 21.5293 28.0318 20.7529 28.3661C19.9645 28.7045 19.1364 28.9696 18.2962 29.1449C17.9259 29.2223 17.5517 29.2835 17.1694 29.3284V30.9959C24.0895 30.2702 29.5921 24.6355 30.3009 17.5493H28.6684V17.5534ZM10.548 28.3661C9.77154 28.0318 9.023 27.6159 8.32223 27.1307C7.62544 26.6496 6.97245 26.0992 6.37919 25.4917C5.78593 24.8842 5.24442 24.2155 4.77857 23.502C4.30476 22.7845 3.89863 22.0179 3.57214 21.2229C3.24166 20.4156 2.98285 19.5675 2.81164 18.7073C2.73599 18.3281 2.67627 17.9448 2.63247 17.5534H1C1.70873 24.6396 7.21135 30.2743 14.1314 31V29.3324C13.7532 29.2876 13.3789 29.2264 13.0046 29.149C12.1645 28.9736 11.3363 28.7086 10.548 28.3661ZM17.1654 1V2.66757C17.5437 2.71242 17.918 2.77358 18.2922 2.85105C19.1324 3.02637 19.9605 3.29138 20.7489 3.62979C21.5253 3.96412 22.2739 4.38 22.9746 4.86518C23.6714 5.34629 24.3244 5.89671 24.9177 6.50421C25.511 7.11171 26.0525 7.78038 26.5183 8.49389C26.9921 9.21147 27.3982 9.97798 27.7247 10.773C28.0552 11.5803 28.314 12.4284 28.4852 13.2887C28.5609 13.6678 28.6206 14.0511 28.6644 14.4425H30.2969C29.5881 7.36042 24.0895 1.72574 17.1654 1Z" fill="white"/>
<path d="M10.8119 8.18359H8.01678V11.0458H10.8119V8.18359Z" fill="white"/>
<path d="M23.2904 8.18359H19.5198V12.0447H23.2904V8.18359Z" fill="white"/>
<path d="M23.2905 18.7383V23.8144H18.3294V18.7383H23.2905Z" fill="white"/>
<path d="M9.64129 22.1465H8.01678V23.81H9.64129V22.1465Z" fill="white"/>
<path d="M15.6495 16.106L8.12025 23.816H8.01672V23.71L15.546 16L15.6495 16.106Z" fill="url(#paint0_linear_2026_5859)"/>
<path d="M23.2852 8.18359V8.2896L19.6141 12.0447L15.7559 15.9996L15.6484 15.8895L19.5145 11.9387L23.1776 8.18359H23.2852Z" fill="url(#paint1_linear_2026_5859)"/>
<path d="M15.6496 15.8895L15.5461 15.9996L8.01678 8.2896V8.18359H8.12031L15.6496 15.8895Z" fill="url(#paint2_linear_2026_5859)"/>
<path d="M23.2852 23.71V23.816H23.1776L15.6484 16.106L15.7559 16L23.2852 23.71Z" fill="url(#paint3_linear_2026_5859)"/>
<rect x="18" y="18" width="14" height="14" rx="2" fill="#03A66D"/>
<path d="M22.6171 29V20.6H27.8491V21.908H24.0691V24.128H27.5491V25.448H24.0691V29H22.6171Z" fill="#FBFBFB"/>
<defs>
<linearGradient id="paint0_linear_2026_5859" x1="15.5983" y1="16.054" x2="9.47993" y2="22.029" gradientUnits="userSpaceOnUse">
<stop stop-color="white" stop-opacity="0"/>
<stop offset="1" stop-color="white"/>
</linearGradient>
<linearGradient id="paint1_linear_2026_5859" x1="15.7027" y1="15.9455" x2="19.5856" y2="12.1536" gradientUnits="userSpaceOnUse">
<stop offset="0.0176145" stop-color="white" stop-opacity="0"/>
<stop offset="1" stop-color="white"/>
</linearGradient>
<linearGradient id="paint2_linear_2026_5859" x1="15.5652" y1="15.9116" x2="10.679" y2="11.1399" gradientUnits="userSpaceOnUse">
<stop stop-color="white" stop-opacity="0"/>
<stop offset="1" stop-color="white"/>
</linearGradient>
<linearGradient id="paint3_linear_2026_5859" x1="15.6864" y1="16.0373" x2="18.4781" y2="18.7636" gradientUnits="userSpaceOnUse">
<stop stop-color="white" stop-opacity="0"/>
<stop offset="0.9809" stop-color="white"/>
</linearGradient>
</defs>
</svg>
