<svg xmlns="http://www.w3.org/2000/svg" x="0px" y="0px" width="100" height="100"
    viewBox="0,0,256,256">
    <g fill="none" fill-rule="nonzero" stroke="none" stroke-width="1" stroke-linecap="butt"
        stroke-linejoin="miter" stroke-miterlimit="10" stroke-dasharray="" stroke-dashoffset="0"
        font-family="none" font-weight="none" font-size="none" text-anchor="none"
        style="mix-blend-mode: normal">
        <g transform="scale(16,16)">
            <path
                d="M8,0c-4.4,0 -8,3.6 -8,8c0,4.4 3.6,8 8,8c4.4,0 8,-3.6 8,-8c0,-4.4 -3.6,-8 -8,-8z"
                fill="#b4b7bb"></path>
            <path
                d="M9.984,15.206c0,-0.262 0.01,-1.125 0.01,-2.195c0,-0.746 -0.256,-1.234 -0.543,-1.482c1.782,-0.198 3.653,-0.874 3.653,-3.948c0,-0.873 -0.31,-1.587 -0.822,-2.147c0.082,-0.202 0.357,-1.016 -0.08,-2.117c0,0 -0.67,-0.215 -2.198,0.82c-0.64,-0.176 -1.324,-0.265 -2.004,-0.268c-0.68,0.003 -1.364,0.092 -2.002,0.269c-1.528,-1.035 -2.2,-0.82 -2.2,-0.82c-0.436,1.101 -0.161,1.915 -0.079,2.117c-0.511,0.559 -0.823,1.273 -0.823,2.147c0,3.066 1.867,3.752 3.644,3.954c-0.229,0.2 -0.435,0.552 -0.508,1.069c-0.456,0.205 -1.615,0.558 -2.328,-0.665c0,0 -0.423,-0.768 -1.225,-0.824c0,0 -0.781,-0.01 -0.055,0.486c0,0 0.524,0.246 0.888,1.17c0,0 0.47,1.556 2.695,1.072c0.004,0.668 0.011,1.171 0.011,1.361c0,0.209 -0.144,0.449 -0.531,0.386c0.79,0.262 1.634,0.409 2.513,0.409c0.88,0 1.724,-0.147 2.516,-0.41c-0.39,0.066 -0.532,-0.174 -0.532,-0.384z"
                fill="#141416"></path>
        </g>
    </g>
</svg>