<svg width="20" height="20" viewBox="0 0 20 20" fill="none" xmlns="http://www.w3.org/2000/svg">
<g id="md:key" clip-path="url(#clip0_2928_4520)">
<path id="Vector" d="M9.41098 3.51818C10.3931 2.53608 11.5716 2.04504 12.9465 2.04504C14.3214 2.04504 15.5 2.53608 16.482 3.51818C17.4641 4.50027 17.9552 5.67878 17.9552 7.05371C17.9552 8.42864 17.4641 9.60715 16.482 10.5892C15.8339 11.2374 15.0777 11.6695 14.2134 11.8856C13.3492 12.1017 12.4947 12.1017 11.6501 11.8856L5.28619 18.2496L1.75065 14.714L2.92916 13.5355L1.1614 11.7678L4.69693 8.23222L6.4647 9.99999L8.11461 8.35007C7.89855 7.50547 7.89855 6.65105 8.11461 5.78681C8.33068 4.92257 8.7628 4.16636 9.41098 3.51818ZM10.5895 4.69669C9.94131 5.34487 9.61957 6.06415 9.62429 6.85454C9.629 7.64493 9.78378 8.27111 10.0886 8.73309L6.4647 12.357L4.69693 10.5892L3.51842 11.7678L5.28619 13.5355L4.10768 14.714L5.28619 15.8925L11.2671 9.9116C11.7287 10.2161 12.3547 10.3706 13.1451 10.3753C13.9355 10.3801 14.655 10.0585 15.3035 9.41073C15.9517 8.76255 16.2758 7.97688 16.2758 7.05371C16.2758 6.13054 15.9517 5.34487 15.3035 4.69669C14.6554 4.04851 13.8697 3.72442 12.9465 3.72442C12.0233 3.72442 11.2377 4.04851 10.5895 4.69669ZM11.768 5.8752C11.4439 6.19929 11.2817 6.59213 11.2813 7.05371C11.2809 7.51529 11.4431 7.90813 11.768 8.23222C12.0921 8.55631 12.4847 8.71836 12.9459 8.71836C13.4071 8.71836 13.8001 8.55631 14.125 8.23222C14.4491 7.90813 14.611 7.51529 14.6106 7.05371C14.6102 6.59213 14.4483 6.19929 14.125 5.8752C13.8009 5.55111 13.4079 5.38906 12.9459 5.38906C12.4839 5.38906 12.0913 5.55111 11.768 5.8752Z" fill="white"/>
</g>
<defs>
<clipPath id="clip0_2928_4520">
<rect width="20" height="20" fill="white"/>
</clipPath>
</defs>
</svg>
