<svg width="46" height="18" viewBox="0 0 46 18" fill="none" xmlns="http://www.w3.org/2000/svg">
<g clip-path="url(#clip0_2198_1113)">
<path d="M21.1604 15.8789C25.0028 15.8789 28.1177 12.764 28.1177 8.92162C28.1177 5.07923 25.0028 1.96436 21.1604 1.96436C17.318 1.96436 14.2031 5.07923 14.2031 8.92162C14.2031 12.764 17.318 15.8789 21.1604 15.8789Z" fill="#B4B7BB"/>
<path d="M22.0781 17.8413C26.2922 17.4074 29.6451 14.0545 30.079 9.84033H28.968C28.5736 13.4956 25.8058 16.408 22.0782 16.8222V17.8413H22.0781Z" fill="white"/>
<path d="M12.2343 9.84033C12.6682 14.0544 16.0211 17.4073 20.2353 17.8413V16.8222C16.5077 16.408 13.7465 13.489 13.3455 9.84033H12.2343Z" fill="white"/>
<path d="M30.0791 8.00095C29.6452 3.78675 26.2923 0.433866 22.0781 0V1.01906C25.8057 1.43325 28.5669 4.35227 28.9679 8.00095H30.079H30.0791Z" fill="white"/>
<path d="M20.2353 0C16.0211 0.433866 12.6682 3.78675 12.2344 8.00095H13.3454C13.7399 4.34563 16.5076 1.43314 20.2353 1.01906V0Z" fill="white"/>
<path d="M26.3477 7.21988C25.922 6.85808 25.3849 7.40044 25.7246 7.84645C25.2062 8.49809 23.5707 10.5732 23.0462 11.254C22.8698 10.8581 21.0203 7.12128 20.3506 5.76852L20.4411 5.6779C20.582 5.53692 20.6169 5.45001 20.6169 5.23931C20.6294 4.96217 20.484 4.79364 20.267 4.67896C19.4771 4.39126 19.0511 5.40717 19.7555 5.82586C19.4706 6.96342 18.8523 9.54661 18.5702 10.6831C18.5616 10.6982 16.779 9.53031 16.2086 9.14985C16.5364 8.65257 15.7261 8.44401 15.7387 8.94624C15.7277 9.14715 15.9611 9.26846 16.1183 9.18987C16.2119 9.05833 16.7099 10.3802 16.9761 10.8953C17.6548 12.4026 18.0238 13.1821 18.0777 13.2308C18.1926 13.3228 18.327 13.2545 18.3527 13.1089C18.3826 13.0238 18.7571 11.5664 18.8765 11.1512C19.6628 11.6836 21.1016 12.8807 21.8907 13.2883C22.0847 13.2674 22.1821 12.9876 22.5399 12.5607L23.0323 11.9099C23.1254 12.0839 23.2143 12.246 23.4221 12.6408C23.6432 13.0132 23.7028 13.2804 23.8434 13.2187C24.3423 12.2333 25.4826 9.01324 25.9804 7.97675C26.4086 8.00407 26.6574 7.53176 26.3476 7.21965L26.3477 7.21988ZM18.1211 12.6132C17.6653 11.8543 16.5091 9.75955 16.2225 9.21607L16.1999 9.17447C16.2029 9.17649 16.2502 9.20741 16.2504 9.20741C16.2076 9.19718 18.4285 10.7216 18.5144 10.9304C18.5039 11.0174 18.1332 12.5994 18.1211 12.6132ZM21.8507 12.8498C21.849 12.8533 21.6174 12.7002 21.3356 12.5105C20.6739 12.051 19.477 11.2955 18.9374 10.9165C19.1224 10.1829 19.4753 8.81683 19.7484 7.72469C19.9486 6.92767 20.1174 6.28547 20.1225 6.29762C20.5607 7.14747 22.5165 10.9513 22.834 11.5343C22.6565 11.7722 21.8916 12.7895 21.8507 12.8499V12.8498ZM25.3904 9.0246C24.9885 10.0236 23.8363 12.775 23.8015 12.8151C23.798 12.8202 23.744 12.7088 23.4378 12.0667L23.2324 11.6387C23.7247 10.9688 24.0852 10.4686 24.8162 9.44767C25.3104 8.75499 25.7176 8.18936 25.7194 8.18936C25.7246 8.18936 25.7073 8.23635 25.3906 9.02471L25.3904 9.0246Z" fill="black"/>
</g>
<defs>
<clipPath id="clip0_2198_1113">
<rect width="18" height="18" fill="white" transform="translate(12)"/>
</clipPath>
</defs>
</svg>
