<?xml version="1.0" encoding="UTF-8"?>
<svg xmlns="http://www.w3.org/2000/svg" version="1.1" width="46" height="18" viewBox="0 0 46 18">
  <defs>
    <style>
      .cls-thesis {
        fill: #006eff;
      }
    </style>
  </defs>
  <!-- Generator: Adobe Illustrator 28.7.1, SVG Export Plug-In . SVG Version: 1.2.0 Build 142)  -->
  <g>
    <g id="Layer_1">
      <g id="Layer_1-2" data-name="Layer_1">
        <path class="cls-thesis" d="M26.6,6.3v2.5c0,.7.6,1.3,1.3,1.3h3.3c.4,0,.7.3.7.7v6.5c0,.4-.3.7-.7.7h-3.7c-.4,0-.7-.3-.7-.7v-6.1c0-.7-.6-1.3-1.3-1.3h-2.5c-.7,0-1.3.6-1.3,1.3v2.3c0,.4-.3.7-.7.7h-2.3c-.7,0-1.3.6-1.3,1.3v1.8c0,.4-.3.7-.7.7h-2.1c-.4,0-.7-.3-.7-.7v-2.2c0-.4.3-.7.7-.7h1.8c.7,0,1.3-.6,1.3-1.3v-2.3c0-.4.3-.7.7-.7h2.3c.7,0,1.3-.6,1.3-1.3v-2.5c0-.7-.6-1.3-1.3-1.3h-6.1c-.4,0-.7-.3-.7-.7V.7c0-.4.3-.7.7-.7h6.5c.4,0,.7.3.7.7v3.3c0,.7.6,1.3,1.3,1.3h2.5c.7,0,1.3-.6,1.3-1.3V.7c0-.4.3-.7.7-.7h3.7c.4,0,.7.3.7.7v3.7c0,.4-.3.7-.7.7h-3.3c-.7,0-1.3.6-1.3,1.3h0Z"/>
      </g>
    </g>
  </g>
</svg>
