<svg width="46" height="18" viewBox="0 0 46 18" fill="none" xmlns="http://www.w3.org/2000/svg">
<g clip-path="url(#clip0_2198_942)">
<path d="M12.25 8.09384H13.2226C13.2488 7.8679 13.2844 7.64433 13.3296 7.42077C13.4319 6.91893 13.5865 6.42423 13.7838 5.95332C13.9788 5.48954 14.2214 5.0424 14.5044 4.62381C14.785 4.2076 15.106 3.81755 15.4604 3.46317C15.8147 3.10879 16.2047 2.78534 16.6208 2.50707C17.0394 2.22404 17.4864 1.98145 17.9502 1.78642C18.421 1.58902 18.9156 1.43443 19.4174 1.33216C19.6386 1.28697 19.8621 1.25129 20.0904 1.22513V0.25C15.9597 0.673349 12.6733 3.96025 12.25 8.09384ZM28.775 9.90616C28.7488 10.1321 28.7132 10.3557 28.668 10.5792C28.5657 11.0811 28.4112 11.5758 28.2138 12.0467C28.0188 12.5105 27.7762 12.9576 27.4932 13.3762C27.2126 13.7924 26.8916 14.1825 26.5373 14.5368C26.1829 14.8912 25.7929 15.2147 25.3768 15.4929C24.9582 15.776 24.5112 16.0186 24.0475 16.2136C23.5766 16.411 23.082 16.5656 22.5802 16.6678C22.359 16.713 22.1355 16.7487 21.9072 16.7749V17.7476C26.0403 17.3243 29.3267 14.0374 29.75 9.90378H28.775V9.90616ZM17.9525 16.2136C17.4888 16.0186 17.0418 15.776 16.6232 15.4929C16.2071 15.2123 15.8171 14.8912 15.4627 14.5368C15.1084 14.1825 14.785 13.7924 14.5068 13.3762C14.2238 12.9576 13.9812 12.5105 13.7862 12.0467C13.5888 11.5758 13.4343 11.0811 13.332 10.5792C13.2868 10.358 13.2512 10.1345 13.225 9.90616H12.25C12.6733 14.0398 15.9597 17.3267 20.0928 17.75V16.7772C19.8669 16.7511 19.6433 16.7154 19.4198 16.6702C18.918 16.568 18.4234 16.4134 17.9525 16.2136ZM21.9048 0.25V1.22275C22.1308 1.24891 22.3543 1.28459 22.5778 1.32978C23.0796 1.43205 23.5742 1.58664 24.0451 1.78404C24.5088 1.97907 24.9559 2.22166 25.3744 2.50469C25.7906 2.78534 26.1806 3.10641 26.5349 3.46079C26.8892 3.81517 27.2126 4.20522 27.4909 4.62143C27.7738 5.04003 28.0164 5.48716 28.2114 5.95094C28.4088 6.42185 28.5634 6.91655 28.6656 7.41839C28.7108 7.63958 28.7465 7.86314 28.7726 8.09146H29.7476C29.3243 3.96025 26.0403 0.673349 21.9048 0.25Z" fill="black"/>
<path d="M18.1108 4.44043H16.4414V6.11004H18.1108V4.44043Z" fill="black"/>
<path d="M25.5606 4.44043H23.3086V6.69274H25.5606V4.44043Z" fill="black"/>
<path d="M25.5607 10.5981V13.5592H22.5977V10.5981H25.5607Z" fill="black"/>
<path d="M17.4116 12.5864H16.4414V13.5568H17.4116V12.5864Z" fill="black"/>
<path d="M21.0001 9.06184L16.5032 13.5593H16.4414V13.4975L20.9383 9L21.0001 9.06184Z" fill="url(#paint0_linear_2198_942)"/>
<path d="M25.565 4.44043V4.50227L23.3724 6.69274L21.0681 8.99975L21.0039 8.93554L23.313 6.6309L25.5008 4.44043H25.565Z" fill="url(#paint1_linear_2198_942)"/>
<path d="M21.0001 8.93554L20.9383 8.99975L16.4414 4.50227V4.44043H16.5032L21.0001 8.93554Z" fill="url(#paint2_linear_2198_942)"/>
<path d="M25.565 13.4975V13.5593H25.5008L21.0039 9.06184L21.0681 9L25.565 13.4975Z" fill="url(#paint3_linear_2198_942)"/>
<path d="M12.25 8.09384H13.2228C13.2489 7.8679 13.2846 7.64433 13.3298 7.42077C13.432 6.91893 13.5866 6.42423 13.784 5.95332C13.9791 5.48954 14.2217 5.0424 14.5047 4.62381C14.7853 4.2076 15.1064 3.81755 15.4608 3.46317C15.8152 3.10879 16.2052 2.78534 16.6214 2.50707C17.04 2.22404 17.4872 1.98145 17.9509 1.78642C18.4219 1.58902 18.9166 1.43443 19.4184 1.33216C19.6396 1.28697 19.8631 1.25129 20.0915 1.22513V0.25C15.9602 0.673349 12.6733 3.96025 12.25 8.09384ZM28.7772 9.90616C28.7511 10.1321 28.7154 10.3557 28.6702 10.5792C28.568 11.0811 28.4134 11.5758 28.216 12.0467C28.0209 12.5105 27.7783 12.9576 27.4953 13.3762C27.2147 13.7924 26.8936 14.1825 26.5392 14.5368C26.1848 14.8912 25.7948 15.2147 25.3786 15.4929C24.96 15.776 24.5128 16.0186 24.0491 16.2136C23.5781 16.411 23.0834 16.5656 22.5816 16.6678C22.3604 16.713 22.1369 16.7487 21.9085 16.7749V17.7476C26.0421 17.3243 29.329 14.0374 29.7524 9.90378H28.7772V9.90616ZM17.9533 16.2136C17.4895 16.0186 17.0424 15.776 16.6238 15.4929C16.2076 15.2123 15.8175 14.8912 15.4632 14.5368C15.1088 14.1825 14.7853 13.7924 14.5071 13.3762C14.224 12.9576 13.9814 12.5105 13.7864 12.0467C13.589 11.5758 13.4344 11.0811 13.3322 10.5792C13.287 10.358 13.2513 10.1345 13.2251 9.90616H12.25C12.6733 14.0398 15.9602 17.3267 20.0938 17.75V16.7772C19.8679 16.7511 19.6443 16.7154 19.4208 16.6702C18.9189 16.568 18.4242 16.4134 17.9533 16.2136ZM21.9062 0.25V1.22275C22.1321 1.24891 22.3557 1.28459 22.5792 1.32978C23.0811 1.43205 23.5758 1.58664 24.0467 1.78404C24.5105 1.97907 24.9576 2.22166 25.3762 2.50469C25.7924 2.78534 26.1825 3.10641 26.5368 3.46079C26.8912 3.81517 27.2147 4.20522 27.4929 4.62143C27.776 5.04003 28.0186 5.48716 28.2136 5.95094C28.411 6.42185 28.5656 6.91655 28.6678 7.41839C28.713 7.63958 28.7487 7.86314 28.7749 8.09146H29.75C29.3266 3.96025 26.0421 0.673349 21.9062 0.25Z" fill="white"/>
<path d="M18.111 4.44043H16.4414V6.11004H18.111V4.44043Z" fill="white"/>
<path d="M25.5648 4.44043H23.3125V6.69274H25.5648V4.44043Z" fill="white"/>
<path d="M25.565 10.5981V13.5592H22.6016V10.5981H25.565Z" fill="white"/>
<path d="M17.4118 12.5859H16.4414V13.5563H17.4118V12.5859Z" fill="white"/>
<path d="M21.0007 9.06135L16.5032 13.5588H16.4414V13.497L20.9389 8.99951L21.0007 9.06135Z" fill="url(#paint4_linear_2198_942)"/>
<path d="M25.5617 4.44043V4.50227L23.3689 6.69274L21.0642 8.99975L21 8.93554L23.3094 6.6309L25.4975 4.44043H25.5617Z" fill="url(#paint5_linear_2198_942)"/>
<path d="M21.0007 8.93554L20.9389 8.99975L16.4414 4.50227V4.44043H16.5032L21.0007 8.93554Z" fill="url(#paint6_linear_2198_942)"/>
<path d="M25.5617 13.497V13.5588H25.4975L21 9.06135L21.0642 8.99951L25.5617 13.497Z" fill="url(#paint7_linear_2198_942)"/>
</g>
<defs>
<linearGradient id="paint0_linear_2198_942" x1="20.9695" y1="9.03148" x2="17.3995" y2="12.6011" gradientUnits="userSpaceOnUse">
<stop stop-opacity="0"/>
<stop offset="1"/>
</linearGradient>
<linearGradient id="paint1_linear_2198_942" x1="21.0363" y1="8.96823" x2="23.302" y2="6.70284" gradientUnits="userSpaceOnUse">
<stop offset="0.0176145" stop-opacity="0"/>
<stop offset="1"/>
</linearGradient>
<linearGradient id="paint2_linear_2198_942" x1="20.9497" y1="8.94842" x2="18.0986" y2="6.0977" gradientUnits="userSpaceOnUse">
<stop stop-opacity="0"/>
<stop offset="1"/>
</linearGradient>
<linearGradient id="paint3_linear_2198_942" x1="21.0266" y1="9.02176" x2="22.6556" y2="10.6505" gradientUnits="userSpaceOnUse">
<stop stop-opacity="0"/>
<stop offset="0.9809"/>
</linearGradient>
<linearGradient id="paint4_linear_2198_942" x1="20.9702" y1="9.03099" x2="17.4001" y2="12.6011" gradientUnits="userSpaceOnUse">
<stop stop-color="white" stop-opacity="0"/>
<stop offset="1" stop-color="white"/>
</linearGradient>
<linearGradient id="paint5_linear_2198_942" x1="21.0324" y1="8.96823" x2="23.2981" y2="6.70253" gradientUnits="userSpaceOnUse">
<stop offset="0.0176145" stop-color="white" stop-opacity="0"/>
<stop offset="1" stop-color="white"/>
</linearGradient>
<linearGradient id="paint6_linear_2198_942" x1="20.9504" y1="8.94842" x2="18.0992" y2="6.09731" gradientUnits="userSpaceOnUse">
<stop stop-color="white" stop-opacity="0"/>
<stop offset="1" stop-color="white"/>
</linearGradient>
<linearGradient id="paint7_linear_2198_942" x1="21.0227" y1="9.02127" x2="22.6517" y2="10.6502" gradientUnits="userSpaceOnUse">
<stop stop-color="white" stop-opacity="0"/>
<stop offset="0.9809" stop-color="white"/>
</linearGradient>
<clipPath id="clip0_2198_942">
<rect width="18" height="18" fill="white" transform="translate(12)"/>
</clipPath>
</defs>
</svg>
