<svg width="46" height="18" viewBox="0 0 46 18" fill="none" xmlns="http://www.w3.org/2000/svg">
<path d="M21 0.633789L28.245 4.81729V13.1828L21 17.3663L13.755 13.1828V4.81729L21 0.633789ZM21 2.36629L16.005 5.25004L21 8.13379L25.995 5.25004L21 2.36629ZM26.745 6.54904L21.75 9.43279V15.2003L26.745 12.3173V6.54904ZM20.25 15.201V9.43354L15.255 6.54829V12.3158L20.25 15.201ZM21.75 3.75004V6.75004H20.25V3.75004H21.75ZM19.4265 10.7745L16.8285 12.2745L16.0785 10.9755L18.6765 9.47554L19.4265 10.7745ZM23.3235 9.47554L25.9215 10.9755L25.1715 12.2745L22.5735 10.7745L23.3235 9.47554Z" fill="#B4B7BB"/>
</svg>
