<svg width="40" height="42" viewBox="0 0 40 42" fill="none" xmlns="http://www.w3.org/2000/svg">
<path opacity="0.51" d="M27.8323 14.194H22.2988C22.028 14.194 21.8035 13.9742 21.8035 13.6987V11.3312C21.8035 11.0604 22.0234 10.8359 22.2988 10.8359H28.0799C28.2188 10.8359 28.3276 10.9447 28.3276 11.0836V13.7034C28.3229 13.9742 28.1031 14.194 27.8323 14.194Z" fill="#AD83FF"/>
<path opacity="0.5" d="M26.4482 13.0481H21.3335C21.1808 13.0481 21.0628 12.9232 21.0628 12.7774V9.96316C21.0628 9.81041 21.1877 9.69238 21.3335 9.69238H26.4528C26.6056 9.69238 26.7236 9.81736 26.7236 9.96316V12.7774C26.7259 12.9301 26.6009 13.0481 26.4482 13.0481Z" fill="#AD83FF"/>
<path opacity="0.9" d="M29.8202 15.4779H23.8192C23.6757 15.4779 23.5577 15.3645 23.5577 15.2164V12.305C23.5577 12.1615 23.6711 12.0435 23.8192 12.0435H29.8202C29.9637 12.0435 30.0818 12.1569 30.0818 12.305V15.2141C30.0841 15.3576 29.9637 15.4779 29.8202 15.4779Z" fill="#AD83FF"/>
<g filter="url(#filter0_d_2198_1146)">
<path d="M27.8531 22.1064C26.2701 24.3304 23.6711 25.7815 20.7342 25.7815C15.9112 25.7815 12 21.8703 12 17.0473C12 12.4348 15.5779 8.65555 20.1094 8.33617C20.1464 8.33617 20.1811 8.33154 20.2181 8.33154C20.5051 8.3408 20.7342 8.55603 20.7342 8.82218V11.972C17.927 11.972 15.6543 14.2469 15.6543 17.0519C15.6543 19.8568 17.9293 22.1318 20.7342 22.1318C23.5392 22.1318 25.8141 19.8568 25.8141 17.0519C25.8141 17.0519 28.6538 18.2252 27.8531 22.1064Z" fill="#925AFF"/>
</g>
<path d="M29.4454 17.7211C29.4014 17.3438 29.0635 17.0522 28.6492 17.0522H21.3244C21.0004 17.0522 20.7366 16.7907 20.7366 16.4644V8.82252C20.7366 8.55637 20.5075 8.34114 20.2205 8.33188C20.2529 8.33188 20.2876 8.32725 20.32 8.32725C20.6926 8.32262 20.8916 8.47537 20.9449 8.52397L20.9495 8.5286L20.9588 8.53785L28.8251 16.4042C29.4916 17.0754 29.4454 17.7211 29.4454 17.7211Z" fill="#AD83FF"/>
<path opacity="0.91" d="M29.4407 17.7137C29.4361 17.8109 29.4268 17.9057 29.4176 17.996C29.2533 19.5165 28.6978 20.9213 27.8531 22.1062C28.6538 18.2228 25.8142 17.0518 25.8142 17.0518H28.6469C29.0635 17.0518 29.4014 17.3434 29.4407 17.7137Z" fill="url(#paint0_linear_2198_1146)"/>
<defs>
<filter id="filter0_d_2198_1146" x="0" y="0.331543" width="39.9954" height="41.4497" filterUnits="userSpaceOnUse" color-interpolation-filters="sRGB">
<feFlood flood-opacity="0" result="BackgroundImageFix"/>
<feColorMatrix in="SourceAlpha" type="matrix" values="0 0 0 0 0 0 0 0 0 0 0 0 0 0 0 0 0 0 127 0" result="hardAlpha"/>
<feOffset dy="4"/>
<feGaussianBlur stdDeviation="6"/>
<feComposite in2="hardAlpha" operator="out"/>
<feColorMatrix type="matrix" values="0 0 0 0 0.579167 0 0 0 0 0.547795 0 0 0 0 0.547795 0 0 0 0.25 0"/>
<feBlend mode="normal" in2="BackgroundImageFix" result="effect1_dropShadow_2198_1146"/>
<feBlend mode="normal" in="SourceGraphic" in2="effect1_dropShadow_2198_1146" result="shape"/>
</filter>
<linearGradient id="paint0_linear_2198_1146" x1="27.6274" y1="22.3056" x2="27.6274" y2="17.0738" gradientUnits="userSpaceOnUse">
<stop offset="8.52446e-08" stop-color="#925AFF"/>
<stop offset="1" stop-color="#713BBB"/>
</linearGradient>
</defs>
</svg>
