<?xml version="1.0" encoding="UTF-8"?>
<svg xmlns="http://www.w3.org/2000/svg" version="1.1" width="46" height="18" viewBox="0 0 46 18">
  <defs>
    <style>
      .cls-thesis {
        fill: #fff;
      }
    </style>
  </defs>
  <path class="cls-thesis" d="M18.93,5.35s-.06.09-.09.14c0-.06,0-.12,0-.18,0-.28,0-.56.02-.84.03-1.06.09-2.12.17-3.17,0-.12.02-.23.03-.35.16.22.32.44.47.66.32.45.64.91.94,1.37-.41.59-.81,1.19-1.19,1.8-.12.19-.24.38-.36.58ZM26.37,8.52s-.04-.01-.06-.02h-.02s0,0,0,0c-.06-.01-.12-.03-.17-.04-.19-.03-.39-.05-.59-.05-.01,0-.02,0-.04,0h0s-.02,0-.07,0c-.03,0-.07,0-.09-.02-.86-.44-1.49-.77-1.75-.92-.23-.13-.47-.27-.47-.27-.09-.05-.18-.1-.28-.16.06,0,.13,0,.19.01.13.01.27.02.4.03.04,0,.08,0,.12,0h0c.19.01.39.02.58.03.15,0,.3.01.46.02.17,0,.35.01.52.02,0,0,0,0,0,0h.02c.12,0,.25,0,.37,0,.07,0,.14.04.17.11s.06.12.08.16c.05.1.09.18.16.28,0,0,.09.13.17.15.02,0,.04.01.07.02.02,0,.03,0,.05.01.53.14,1.07.27,1.61.39.13.03.25.06.38.08.08.02.15.03.23.05h0c.12.03.23.05.35.08,0,0,0,0,0-.01.01,0,.03,0,.04,0-.09-.08-.18-.16-.27-.24-.08-.07-.16-.14-.24-.21-.34-.3-.68-.59-1.03-.88-1.03-.87-2.09-1.7-3.18-2.5-.19-.14-.37-.27-.56-.41,0,0,0,0,0,0-.05-.03-.09-.07-.14-.1,0-.03,0-.07,0-.1,0,0,0,0,0,0,0-.05,0-.1,0-.15v-.02s0-.04,0-.07c0-.09,0-.18,0-.27,0-.16,0-.33,0-.49,0-1.02.03-2.04.1-3.05-.09.11-.19.22-.28.33,0,.01-.02.02-.03.04,0,0,0,0,0,.01-.13.16-.27.33-.4.49-.04.04-.07.09-.11.13-.12.15-.24.3-.35.45-.04.05-.08.1-.12.15-.11.14-.22.28-.33.43-.05.07-.1.14-.15.21-.12.16-.24.33-.36.49-.17.24-.34.48-.51.72-.37.53-.73,1.08-1.08,1.63-.1.16-.2.32-.3.49-.1.16-.2.33-.3.5-.09.16-.19.31-.28.47,0,.01-.01.02-.02.03-.24.41-.46.82-.69,1.23,0,.01-.01.02-.02.03,0,0,0,0,0,.01,0,0,0,0,0,0,0,.01-.02.03-.02.04-.02.03-.03.06-.05.09-.04.07-.08.14-.11.21-.04.07-.07.13-.1.2-.01.02-.02.04-.03.06-.01.03-.03.05-.04.08-.13.26-.26.52-.39.78-.06.13-.13.26-.19.39-.05.1-.09.2-.14.3-.03.06-.06.13-.09.19-.05.11-.1.21-.15.32-.04.08-.08.17-.11.25-.02.04-.04.08-.05.12-.06.13-.11.25-.17.38-.02.05-.04.09-.06.13-.02.05-.05.11-.07.17-.03.08-.07.16-.1.24,0,0,0,.01,0,.02-.05.12-.1.25-.15.37-.02.05-.04.1-.06.15-.03.07-.06.14-.08.2,0,0,0,0,0,0-.06.15-.12.31-.18.47,0,0,0,0,0,0,0,0,0,0,0,0,0,0,0,.01,0,.02-.01.04-.03.07-.04.11-.03.08-.06.17-.1.25-.02.06-.05.13-.07.19-.06.17-.12.34-.18.5,0,0,0,0,0,0-.03.09-.06.18-.1.27,0,0,0,.01,0,.02,0,0,0,0,0,0,0,0,0,0,0,.01,0,0,0,.02,0,.02,0,0,0,.02,0,.02,0,0,0,0,0,.01,0,.01,0,.02-.01.04,0,0,0,0,0,.01v.03s-.01,0-.01.01c0,0,0,0,0,0,0,0,0,.01,0,.02h0s0,.01,0,.02c0,0,0,0,0,.01,0,.02-.01.03-.02.05,0,.02-.01.04-.02.07-.01.04-.03.08-.04.12-.02.05-.03.1-.05.15,0,.02-.01.04-.02.06-.08.23-.15.47-.23.7h0c.16-.12.32-.25.47-.37.09-.07.19-.14.28-.21,0,0,0,0,.01,0,0,0,.01,0,.02-.02.13-.1.26-.2.39-.29.04-.03.09-.06.13-.09.06-.04.11-.08.17-.12.01-.01.03-.02.04-.03.05-.04.1-.07.15-.11.15-.11.3-.21.45-.32.08-.06.17-.12.25-.18.07-.05.15-.1.22-.15.05-.03.1-.07.15-.1.04-.03.08-.06.12-.08.08-.05.16-.11.24-.16.1-.07.2-.13.3-.2.03-.02.06-.04.09-.06,0,0,0,0,0,0,0,0,0,0,0,0,.1-.06.19-.13.29-.19.02-.01.04-.03.07-.04.17-.11.35-.22.53-.33.21-.13.43-.26.64-.39.29-.17.58-.34.88-.51.33-.19.67-.38,1.01-.56.18-.1.36-.19.53-.28h0c.55-.28,1.11-.56,1.67-.82.2-.09.4-.18.6-.27.55-.25,1.11-.48,1.67-.71.08-.03.16-.07.25-.1-.08.05-.17.09-.25.14-.52.29-1.04.6-1.55.91,0,0-.02.01-.02.01,0,0,0,0-.01,0,0,0,0,0,0,0,0,0,0,0,0,0-.21.13-.41.26-.62.39-.51.32-1.01.66-1.5,1-.12.08-.23.16-.35.25-.22.16-.44.31-.65.47-.23.17-.35.26-.47.35-.55.41-1.42,1.03-1.78,1.42-.14.16-.21.27-.23.32-.04.11-.08.22-.12.32-.03.09-.06.17-.09.26,0,.02-.01.04-.02.06-.03.07-.05.15-.08.22,0,.01,0,.03-.01.04-.03.07-.05.14-.08.22-.03.09-.06.18-.1.28-.03.09-.06.19-.1.28-.01.04-.03.08-.04.12-.05.14-.09.28-.14.42h0s0,.01,0,.02c-.05.14-.09.29-.14.43,0,.03-.02.06-.03.09,0,0,0,.01,0,.02-.06.18-.11.36-.16.54,0,0,0,.02,0,.02-.02.08-.05.17-.07.25,0,0,0,.02,0,.03-.01.03-.02.06-.03.1t0,0s.05-.04.07-.06c.6-.56,1.21-1.1,1.84-1.63,1.01-.85,2.07-1.66,3.15-2.41.21-.15.42-.29.63-.43.14-.09.2-.14.29-.19.32-.21.61-.39.69-.43.4-.23,1.05-.33,1.62-.26.19.02.71.17,1.76.46.02,0,.05.01.1.02.41.07.77-.18.93-.29.41-.28,1.35-1.39,2.41-3.03h0s-4.85-1.22-4.85-1.22Z"/>
</svg>
