<?xml version="1.0" encoding="UTF-8"?>
<svg xmlns="http://www.w3.org/2000/svg" version="1.1" width="46" height="18" viewBox="0 0 46 18">
  <defs>
    <linearGradient id="Gradient2" x1="0" x2="0" y1="0" y2="1">
      <stop offset="0%" stop-color="rgb(250, 255, 194)" />
      <stop offset="100%" stop-color="rgb(236, 222, 6)" />
    </linearGradient>
    <style>
      .cls-lfg-fire {
        fill-rule: evenodd;
        fill: url(#Gradient2);
      }
      .cls-2 {
        fill: #000;
      }
    </style>
  </defs>
  <!-- Generator: Adobe Illustrator 28.7.1, SVG Export Plug-In . SVG Version: 1.2.0 Build 142)  -->
  <g>
    <g id="Layer_1">
      <g id="Layer_1-2" data-name="Layer_1">
        <path class="cls-lfg-fire" d="M18.1,13s.2-1.5,1.2-2.4c.9-.8,2.5-.9,2.5-.9"/>
        <path class="cls-lfg-fire" d="M18.1,13s1.5,0,2.5-.9c.9-.8,1.2-2.4,1.2-2.4"/>
        <path class="cls-2" d="M26.7,16.1l-3.2,1.9c.4-1.9-.7-4-1.8-5.8,3.9-1.1,7.5-4.4,7.4-9-4.5-.7-8.3,2.4-9.9,6.1-1.6-1.3-3.6-2.6-5.6-2.5l2.2-2.9c.8.2,1.5.5,2.3.9C21.5.7,26.9-1.1,32.2.7c.9,5.4-1.4,10.5-6,13.2.3.9.5,1.6.6,2.4h0Z"/>
      </g>
    </g>
  </g>
</svg>
