<svg width="46" height="18" viewBox="0 0 46 18" fill="none" xmlns="http://www.w3.org/2000/svg">
<g clip-path="url(#clip0_2198_1034)">
<path d="M20.0082 0.5625C18.7403 0.718139 17.5284 1.16015 16.4555 1.84911L18.5805 2.37621L20.0082 0.5625Z" fill="white"/>
<path d="M17.5284 3.71056L18.5784 2.37622L16.4555 1.84912H16.4514L17.5284 3.71056Z" fill="white"/>
<path d="M17.5284 3.71056L16.4514 1.84912V1.8512L16.0156 4.01353L17.5284 3.71056Z" fill="white"/>
<path d="M16.4514 1.85107C15.4097 2.51928 14.5236 3.40538 13.8512 4.44713L16.0156 4.01134L16.4514 1.85107Z" fill="white"/>
<path d="M15.7147 5.52086L16.0156 4.01221L13.8533 4.44592L15.7147 5.52086Z" fill="white"/>
<path d="M18.5785 2.37621L20.0083 2.73106V0.5625L18.5785 2.37621Z" fill="white"/>
<path d="M12.5625 8.00609H14.7311L14.3783 6.45801L12.5625 8.00609Z" fill="white"/>
<path d="M15.7147 5.52221L13.8533 4.44727L14.3783 6.57433L15.7147 5.52221Z" fill="white"/>
<path d="M13.8533 4.44727C13.1602 5.52428 12.7223 6.74034 12.5625 8.0062L14.3762 6.57433L13.8533 4.44727Z" fill="white"/>
<path d="M18.5784 2.375L17.5284 3.70934C18.2775 3.2113 19.1221 2.87719 20.0082 2.72986L18.5784 2.375Z" fill="white"/>
<path d="M17.5285 3.70996L16.0198 4.01086L15.7148 5.51952C16.192 4.80358 16.8084 4.18518 17.5285 3.70996Z" fill="white"/>
<path d="M15.7147 5.52148L14.3804 6.57568L14.7332 8.00755C14.8805 7.1173 15.2167 6.27062 15.7147 5.52148Z" fill="white"/>
<path d="M12.5625 9.99316C12.7181 11.2611 13.1602 12.473 13.8491 13.5459L14.3762 11.4209L12.5625 9.99316Z" fill="white"/>
<path d="M15.7105 12.4739L14.3782 11.4238L13.8491 13.5467L15.7105 12.4739Z" fill="white"/>
<path d="M13.8533 13.5459C14.5215 14.5876 15.4076 15.4737 16.4493 16.1461L16.0135 13.9817L13.8533 13.5459Z" fill="white"/>
<path d="M17.5222 14.2875L16.0136 13.9824L16.4494 16.1468L17.5222 14.2875Z" fill="white"/>
<path d="M14.3783 11.423L14.7311 9.99316H12.5625L14.3783 11.423Z" fill="white"/>
<path d="M20.0083 17.4375V15.271L18.4581 15.6238L20.0083 17.4375Z" fill="white"/>
<path d="M17.5221 14.2866L16.4492 16.146L18.5763 15.623L17.5221 14.2866Z" fill="white"/>
<path d="M16.4493 16.1465C17.5263 16.8375 18.7403 17.2775 20.0082 17.4372L18.5763 15.6235L16.4493 16.1465Z" fill="white"/>
<path d="M14.3783 11.423L15.7126 12.473C15.2146 11.7239 14.8805 10.8793 14.7332 9.99316L14.3783 11.423Z" fill="white"/>
<path d="M15.7106 12.4727L16.0115 13.9813L17.5201 14.2864C16.8042 13.8091 16.1899 13.1907 15.7106 12.4727Z" fill="white"/>
<path d="M17.5222 14.2866L18.5764 15.621L20.0083 15.2682C19.1201 15.1188 18.2734 14.7847 17.5222 14.2866Z" fill="white"/>
<path d="M21.9963 17.4372C23.2642 17.2816 24.4761 16.8396 25.549 16.1506L23.424 15.6235L21.9963 17.4372Z" fill="white"/>
<path d="M24.4761 14.2866L23.424 15.623L25.549 16.1481L24.4761 14.2866Z" fill="white"/>
<path d="M24.4761 14.2877L25.549 16.1492L25.9848 13.9868L24.4761 14.2877Z" fill="white"/>
<path d="M25.549 16.1488C26.5907 15.4806 27.4768 14.5945 28.1492 13.5527L25.9848 13.9885L25.549 16.1488Z" fill="white"/>
<path d="M26.2898 12.4785L25.9848 13.9872L28.1471 13.5535V13.5514L26.2898 12.4785Z" fill="white"/>
<path d="M23.424 15.6238L21.9963 15.271V17.4375L23.424 15.6238Z" fill="white"/>
<path d="M29.4379 9.99316H27.2714L27.6241 11.5433L29.4379 9.99316Z" fill="white"/>
<path d="M26.2898 12.478L28.1471 13.5509L27.6241 11.4238L26.2898 12.478Z" fill="white"/>
<path d="M28.1471 13.5511C28.8381 12.4741 29.2781 11.2601 29.4379 9.99219L27.6241 11.4241L28.1471 13.5511Z" fill="white"/>
<path d="M23.424 15.6234L24.474 14.2891C23.7249 14.7871 22.8803 15.1212 21.9942 15.2685L23.424 15.6234Z" fill="white"/>
<path d="M24.4761 14.292L25.9848 13.9911L26.2898 12.4824C25.8084 13.1984 25.1921 13.8126 24.4761 14.292Z" fill="white"/>
<path d="M26.2898 12.4772L27.6241 11.423L27.2714 9.99316C27.1199 10.8813 26.7878 11.728 26.2898 12.4772Z" fill="white"/>
<path d="M29.4379 8.00535C29.2822 6.73741 28.8402 5.52551 28.1512 4.45264L27.6241 6.57762L29.4379 8.00535Z" fill="white"/>
<path d="M26.2919 5.52563L27.6241 6.57774L28.1512 4.45068L26.2919 5.52563Z" fill="white"/>
<path d="M26.292 5.52538L28.1513 4.45044L25.9869 4.01465L26.292 5.52538Z" fill="white"/>
<path d="M28.1513 4.45128C27.4831 3.40954 26.5969 2.52343 25.5552 1.85107L25.991 4.01549L28.1513 4.45128Z" fill="white"/>
<path d="M24.4781 3.71251L25.9868 4.01549L25.5552 1.85107H25.551L24.4781 3.71251Z" fill="white"/>
<path d="M27.6241 6.57764L27.2713 8.00536H29.4378L27.6241 6.57764Z" fill="white"/>
<path d="M21.9963 0.5625V2.73106L23.5444 2.37828L21.9963 0.5625Z" fill="white"/>
<path d="M24.4782 3.71251L25.5511 1.85107L23.424 2.37817L24.4782 3.71251Z" fill="white"/>
<path d="M25.5511 1.85119C24.4761 1.16015 23.2601 0.720214 21.9921 0.5625L23.424 2.37621L25.5511 1.85119Z" fill="white"/>
<path d="M27.6241 6.57836L26.2898 5.52832C26.7878 6.27746 27.1219 7.12206 27.2693 8.00816L27.6241 6.57836Z" fill="white"/>
<path d="M26.2919 5.52611L25.9889 4.01745L24.4803 3.7124C25.1983 4.19177 25.8125 4.81017 26.2919 5.52611Z" fill="white"/>
<path d="M24.4782 3.71178L23.424 2.37744L21.9921 2.73022C22.8803 2.87756 23.7291 3.21166 24.4782 3.71178Z" fill="white"/>
<path d="M21.0023 3.83105L19.4874 6.45201H22.5172L21.0023 3.83105Z" fill="white"/>
<path d="M22.5171 6.45117L21.0023 9.07628H24.0279L22.5171 6.45117Z" fill="white"/>
<path d="M24.0279 9.07471L22.5172 11.6977H25.5428L24.0279 9.07471Z" fill="white"/>
<path d="M19.4873 11.6987L21.0022 9.07568H17.9724L19.4873 11.6987Z" fill="white"/>
<path d="M22.5171 11.6987L24.0279 9.07568H21.0023L22.5171 11.6987Z" fill="white"/>
<path d="M21.0023 9.07628L22.5172 6.45117H19.4833L21.0023 9.07628Z" fill="white"/>
<path d="M17.9725 9.07568L16.4576 11.6987H19.4874L17.9725 9.07568Z" fill="white"/>
<path d="M21.0023 3.83105L19.4874 6.45201H22.5172L21.0023 3.83105Z" fill="white"/>
<path d="M22.5171 6.45117L21.0023 9.07628H24.0279L22.5171 6.45117Z" fill="white"/>
<path d="M24.0279 9.07471L22.5172 11.6977H25.5428L24.0279 9.07471Z" fill="white"/>
<path d="M19.4873 11.6987L21.0022 9.07568H17.9724L19.4873 11.6987Z" fill="white"/>
<path d="M22.5171 11.6987L24.0279 9.07568H21.0023L22.5171 11.6987Z" fill="white"/>
<path d="M21.0023 9.07628L22.5172 6.45117H19.4833L21.0023 9.07628Z" fill="white"/>
<path d="M17.9725 9.07568L16.4576 11.6987H19.4874L17.9725 9.07568Z" fill="white"/>
<path d="M15.7106 12.4727L16.0135 13.9813L13.8533 13.5455L15.7106 12.4727Z" fill="white"/>
</g>
<defs>
<clipPath id="clip0_2198_1034">
<rect width="18" height="18" fill="white" transform="translate(12)"/>
</clipPath>
</defs>
</svg>
