<svg width="46" height="18" viewBox="0 0 46 18" fill="none" xmlns="http://www.w3.org/2000/svg">
<path d="M22.536 3.80522V7.31882H24.4572V3.80522H22.536ZM23.3652 3.34082V8.97602H23.6304V3.34082H23.3652ZM20.8452 7.48442V12.4224H21.1116V7.48442H20.8452ZM17.4984 10.7652V14.2788H19.4196V10.7652H17.4984ZM20.0172 7.31882V10.7664H21.9384V7.31882H20.0172Z" fill="#69E73D"/>
<path d="M29.2008 2.00879V7.52399H27.6408V3.56879H25.5756V2.00879H29.2008Z" fill="#D0F9BD"/>
<path d="M27.6408 10.4507H29.2008V15.9659H25.5756V14.4059H27.6408V10.4507Z" fill="#D0F9BD"/>
<path d="M16.4244 2.00146V3.56266H14.3592V7.52386H12.7992V2.00146H16.4244Z" fill="#D0F9BD"/>
<path d="M14.3592 14.3999H16.4244V15.9599H12.7992V10.4507H14.3592V14.3999Z" fill="#D0F9BD"/>
</svg>
