<svg width="46" height="18" viewBox="0 0 46 18" fill="none" xmlns="http://www.w3.org/2000/svg">
<g clip-path="url(#clip0_2189_904)">
<path d="M14.997 0.521484L15.8205 2.17523L17.4735 2.99798L15.8205 3.82073L14.997 5.47373L14.175 3.81998L12.5212 2.99723L14.175 2.17523L14.997 0.521484ZM21 2.25023C20.5335 2.25023 20.0775 2.29748 19.6387 2.38748L18.9037 2.53748L18.6037 1.06748L19.3387 0.917484C19.8854 0.805928 20.442 0.749894 21 0.750234C25.5562 0.750234 29.25 4.44399 29.25 9.00023C29.25 13.5565 25.5562 17.2502 21 17.2502C16.4437 17.2502 12.75 13.5565 12.75 9.00023C12.75 8.33648 12.8287 7.69073 12.9772 7.07048L13.152 6.34148L14.6107 6.69098L14.436 7.42073C14.1077 8.78471 14.2126 10.2171 14.736 11.5187C15.2595 12.8203 16.1755 13.9265 17.3567 14.6835C18.5379 15.4404 19.9256 15.8105 21.3269 15.7422C22.7281 15.674 24.0733 15.1709 25.1754 14.3028C26.2775 13.4346 27.0817 12.2447 27.4762 10.8984C27.8707 9.55206 27.8359 8.11627 27.3767 6.79063C26.9174 5.465 26.0566 4.3154 24.9137 3.50167C23.7709 2.68794 22.4029 2.25053 21 2.25023Z" fill="#B4B7BB"/>
<path d="M20.2501 4.5V5.25C19.6533 5.25 19.081 5.48705 18.6591 5.90901C18.2371 6.33097 18.0001 6.90326 18.0001 7.5C18.0001 8.09674 18.2371 8.66903 18.6591 9.09099C19.081 9.51295 19.6533 9.75 20.2501 9.75H21.7501C21.949 9.75 22.1397 9.82902 22.2804 9.96967C22.421 10.1103 22.5001 10.3011 22.5001 10.5C22.5001 10.6989 22.421 10.8897 22.2804 11.0303C22.1397 11.171 21.949 11.25 21.7501 11.25H18.3751V12.75H20.2501V13.5H21.7501V12.75C22.0455 12.75 22.3381 12.6918 22.6111 12.5787C22.8841 12.4657 23.1321 12.2999 23.3411 12.091C23.55 11.8821 23.7157 11.634 23.8288 11.361C23.9419 11.0881 24.0001 10.7955 24.0001 10.5C24.0001 10.2045 23.9419 9.91194 23.8288 9.63896C23.7157 9.36598 23.55 9.11794 23.3411 8.90901C23.1321 8.70008 22.8841 8.53434 22.6111 8.42127C22.3381 8.3082 22.0455 8.25 21.7501 8.25H20.2501C20.0511 8.25 19.8604 8.17098 19.7197 8.03033C19.5791 7.88968 19.5001 7.69891 19.5001 7.5C19.5001 7.30109 19.5791 7.11032 19.7197 6.96967C19.8604 6.82902 20.0511 6.75 20.2501 6.75H23.6251V5.25H21.7501V4.5H20.2501Z" fill="#B4B7BB"/>
</g>
<defs>
<clipPath id="clip0_2189_904">
<rect width="18" height="18" fill="white" transform="translate(12)"/>
</clipPath>
</defs>
</svg>
