<svg width="81" height="24" viewBox="0 0 81 24" fill="none" xmlns="http://www.w3.org/2000/svg">
<g clip-path="url(#clip0_2129_6189)">
<path d="M15.4099 10.9782H4.47656V9.5382H13.2126L10.3539 6.51953H12.3379L15.7619 10.1462C16.0712 10.4555 15.8472 10.9782 15.4099 10.9782Z" fill="white"/>
<path d="M15.9089 13.8482H7.16222L10.0209 16.8669H8.03689L4.61289 13.2402C4.31422 12.9202 4.53822 12.4082 4.97555 12.4082H15.9089V13.8482Z" fill="white"/>
<path d="M-0.164062 10.6247H0.987938C1.01994 10.358 1.0626 10.0913 1.11594 9.82465C1.23327 9.22732 1.4146 8.65132 1.65994 8.08598C1.8946 7.53132 2.1826 7.00865 2.51327 6.50732C2.84394 6.01665 3.22794 5.55798 3.64394 5.13132C4.05994 4.71532 4.52927 4.33132 5.01994 4.00065C5.5106 3.66998 6.04394 3.38198 6.5986 3.14732C7.15327 2.91265 7.73994 2.73132 8.33727 2.60332C8.60394 2.54998 8.8706 2.50732 9.13727 2.47532V1.33398C4.2306 1.83532 0.337271 5.72865 -0.164062 10.6247ZM19.3986 12.7687C19.3666 13.0353 19.3239 13.302 19.2706 13.5687C19.1533 14.166 18.9719 14.742 18.7266 15.3073C18.4919 15.862 18.2039 16.3846 17.8733 16.886C17.5426 17.3766 17.1586 17.8353 16.7426 18.262C16.3266 18.678 15.8573 19.062 15.3666 19.3926C14.8759 19.7233 14.3426 20.0113 13.7879 20.246C13.2333 20.4806 12.6466 20.662 12.0493 20.79C11.7826 20.8433 11.5159 20.886 11.2493 20.918V22.07C16.1453 21.5686 20.0279 17.6753 20.5293 12.79H19.3986V12.7687ZM6.58794 20.2247C6.03327 19.99 5.5106 19.702 5.00927 19.3713C4.5186 19.0407 4.05994 18.6567 3.63327 18.2407C3.21727 17.8246 2.83327 17.3553 2.5026 16.8647C2.17194 16.374 1.88394 15.8406 1.64927 15.286C1.4146 14.7313 1.23327 14.1446 1.10527 13.5473C1.05194 13.2807 1.00927 13.014 0.97727 12.7473H-0.164062C0.337271 17.6433 4.2306 21.526 9.11594 22.0273V20.8753C8.84927 20.8433 8.5826 20.8006 8.31594 20.7473C7.72927 20.6513 7.1426 20.47 6.58794 20.2247ZM11.2599 1.33398V2.48598C11.5266 2.51798 11.7933 2.56065 12.0599 2.61398C12.6573 2.73132 13.2333 2.91265 13.7986 3.15798C14.3533 3.39265 14.8759 3.68065 15.3773 4.01132C15.8679 4.34198 16.3266 4.72598 16.7533 5.14198C17.1693 5.55798 17.5533 6.02732 17.8839 6.51798C18.2146 7.00865 18.5026 7.54198 18.7373 8.09665C18.9719 8.65132 19.1533 9.23798 19.2813 9.83532C19.3346 10.102 19.3773 10.3687 19.4093 10.6353H20.5613C20.0493 5.72865 16.1559 1.83532 11.2599 1.33398Z" fill="white"/>
<path d="M27.8838 8.33398C25.7216 8.33398 24.4648 9.76642 24.4648 12.334C24.4648 14.807 25.6405 16.2394 27.8027 16.2394C29.9513 16.2394 31.1675 14.807 31.1675 12.2394C31.1675 9.77993 30.0324 8.33398 27.8838 8.33398ZM30.0054 12.9151C30.0054 14.4421 29.3162 15.4691 27.8432 15.4691C26.3567 15.4691 25.6811 14.4556 25.6811 12.9151V11.6853C25.6811 10.0772 26.3567 9.13128 27.8432 9.13128C29.3432 9.13128 30.0054 10.1178 30.0054 11.6853V12.9151Z" fill="white"/>
<path d="M33.1676 8.4707H36.4514C37.2757 8.4707 37.9244 8.64638 38.3973 9.01124C38.8703 9.37611 39.1135 9.8626 39.1135 10.4572C39.1135 10.9031 38.9784 11.2545 38.7081 11.5248C38.4379 11.795 38.073 11.9977 37.6 12.1058V12.1329C38.1811 12.241 38.6406 12.4437 38.9649 12.741C39.3027 13.0383 39.4649 13.4437 39.4649 13.9572C39.4649 14.3761 39.3568 14.741 39.1271 15.0923C38.8973 15.4302 38.5865 15.7004 38.1946 15.8896C37.8027 16.0788 37.3568 16.1869 36.8703 16.1869H33.1811V8.4707H33.1676ZM36.3162 11.8221C36.8162 11.8221 37.1946 11.7275 37.4784 11.5518C37.7487 11.3761 37.8838 11.1194 37.8838 10.768V10.3356C37.8838 9.98422 37.7487 9.72746 37.4784 9.53827C37.2081 9.3626 36.8162 9.268 36.3162 9.268H34.3298V11.8085H36.3162V11.8221ZM36.519 15.3896C37.0595 15.3896 37.4919 15.295 37.7892 15.0923C38.0865 14.8896 38.2352 14.6058 38.2352 14.2139V13.7545C38.2352 13.3761 38.0865 13.0788 37.7892 12.8761C37.4919 12.6734 37.073 12.5788 36.519 12.5788H34.3298V15.3761H36.519V15.3896Z" fill="white"/>
<path d="M42.6657 16.2004H41.5035V8.4707H45.0171C45.9089 8.4707 46.5846 8.65989 47.0576 9.05178C47.5306 9.44368 47.7738 9.98422 47.7738 10.6869C47.7738 11.3085 47.5711 11.8221 47.1522 12.1869C46.7468 12.5653 46.1522 12.7815 45.3819 12.8356L47.8414 16.1734H46.5441L44.1927 12.8761H42.6522V16.2004H42.6657ZM44.99 12.1194C45.4765 12.1194 45.8549 12.0248 46.1387 11.8221C46.4089 11.6329 46.5441 11.3491 46.5441 10.9842V10.4031C46.5441 10.0383 46.4089 9.768 46.1387 9.5653C45.8684 9.37611 45.49 9.268 44.99 9.268H42.6657V12.1058H44.99V12.1194Z" fill="white"/>
<path d="M49.7242 16.2004V15.4572H52.1296V9.21395H49.7242V8.4707H55.6972V9.21395H53.2918V15.4572H55.6972V16.2004H49.7242Z" fill="white"/>
<path d="M58.1813 8.4707H60.884C62.0597 8.4707 62.938 8.79503 63.5191 9.44368C64.1002 10.0923 64.3975 11.0518 64.3975 12.3356C64.3975 13.6058 64.1002 14.5788 63.5191 15.2275C62.938 15.8761 62.0597 16.2004 60.884 16.2004H58.1813V8.4707ZM60.8164 15.3896C61.5732 15.3896 62.1543 15.1734 62.5597 14.741C62.9651 14.3085 63.1678 13.7139 63.1678 12.9302V11.741C63.1678 10.9572 62.9651 10.3491 62.5597 9.93016C62.1543 9.49773 61.5732 9.29503 60.8164 9.29503H59.3299V15.4031H60.8164V15.3896Z" fill="white"/>
<path d="M71.3158 15.1718H71.2482C71.059 15.5232 70.8023 15.807 70.478 16.0232C70.1401 16.2394 69.6807 16.334 69.0726 16.334C68.0455 16.334 67.2617 15.9961 66.7347 15.3205C66.2077 14.6448 65.9509 13.6718 65.9509 12.388C65.9509 11.0637 66.2347 10.0502 66.8158 9.36101C67.3834 8.67182 68.2482 8.33398 69.4104 8.33398C70.2347 8.33398 70.8698 8.49615 71.3428 8.80696C71.8023 9.11777 72.1672 9.52317 72.4104 10.0232L71.4104 10.388C71.2077 9.98263 70.9644 9.67182 70.6807 9.45561C70.3969 9.23939 69.978 9.13128 69.4509 9.13128C68.6942 9.13128 68.1266 9.36101 67.7617 9.80696C67.3834 10.2529 67.2077 10.888 67.2077 11.6853V12.8745C67.2077 13.6988 67.3834 14.3475 67.7212 14.8205C68.059 15.2934 68.6131 15.5232 69.3563 15.5232C69.9644 15.5232 70.4509 15.3745 70.8158 15.0772C71.1807 14.7799 71.3563 14.388 71.3563 13.9016V13.1043H69.3158V12.361H72.4239V16.1853H71.3428V15.1718H71.3158Z" fill="white"/>
<path d="M74.7203 16.2004V8.4707H80.6663V9.28151H75.8825V11.8761H80.5041V12.6869H75.8825V15.3896H80.6663V16.2004H74.7203Z" fill="white"/>
</g>
<defs>
<clipPath id="clip0_2129_6189">
<rect width="81" height="24" fill="white"/>
</clipPath>
</defs>
</svg>
