<svg width="32" height="32" viewBox="0 0 32 32" fill="none" xmlns="http://www.w3.org/2000/svg">
<path d="M1 14.4466H2.62849C2.67229 14.0593 2.73201 13.676 2.80766 13.2927C2.97887 12.4325 3.23768 11.5844 3.56816 10.7771C3.89465 9.98206 4.30078 9.21555 4.77459 8.49796C5.24442 7.78445 5.78194 7.11579 6.37521 6.50829C6.96847 5.90079 7.62146 5.34629 8.31825 4.86926C9.01901 4.38407 9.76756 3.9682 10.544 3.63387C11.3323 3.29546 12.1605 3.03044 13.0006 2.85512C13.3709 2.77766 13.7452 2.7165 14.1275 2.67165V1C7.21135 1.72574 1.70873 7.36043 1 14.4466ZM28.6684 17.5534C28.6246 17.9407 28.5649 18.324 28.4892 18.7073C28.318 19.5675 28.0592 20.4156 27.7287 21.2229C27.4022 22.0179 26.9961 22.7845 26.5223 23.502C26.0525 24.2155 25.5149 24.8842 24.9217 25.4917C24.3284 26.0992 23.6754 26.6537 22.9786 27.1307C22.2779 27.6159 21.5293 28.0318 20.7529 28.3661C19.9645 28.7045 19.1364 28.9696 18.2962 29.1449C17.9259 29.2223 17.5517 29.2835 17.1694 29.3284V30.9959C24.0895 30.2702 29.5921 24.6355 30.3009 17.5493H28.6684V17.5534ZM10.548 28.3661C9.77154 28.0318 9.023 27.6159 8.32223 27.1307C7.62544 26.6496 6.97245 26.0992 6.37919 25.4917C5.78593 24.8842 5.24442 24.2155 4.77857 23.502C4.30476 22.7845 3.89863 22.0179 3.57214 21.2229C3.24166 20.4156 2.98285 19.5675 2.81164 18.7073C2.73599 18.3281 2.67627 17.9448 2.63247 17.5534H1C1.70873 24.6396 7.21135 30.2743 14.1314 31V29.3324C13.7532 29.2876 13.3789 29.2264 13.0046 29.149C12.1645 28.9736 11.3363 28.7086 10.548 28.3661ZM17.1654 1V2.66757C17.5437 2.71242 17.918 2.77358 18.2922 2.85105C19.1324 3.02637 19.9605 3.29138 20.7489 3.62979C21.5253 3.96412 22.2739 4.38 22.9746 4.86518C23.6714 5.34629 24.3244 5.89671 24.9177 6.50421C25.511 7.11171 26.0525 7.78038 26.5183 8.49389C26.9921 9.21147 27.3982 9.97798 27.7247 10.773C28.0552 11.5803 28.314 12.4284 28.4852 13.2887C28.5609 13.6678 28.6206 14.0511 28.6644 14.4425H30.2969C29.5881 7.36042 24.0895 1.72574 17.1654 1Z" fill="white"/>
<path d="M10.8119 8.18359H8.01678V11.0458H10.8119V8.18359Z" fill="white"/>
<path d="M23.2904 8.18359H19.5198V12.0447H23.2904V8.18359Z" fill="white"/>
<path d="M23.2905 18.7383V23.8144H18.3294V18.7383H23.2905Z" fill="white"/>
<path d="M9.64129 22.1465H8.01678V23.81H9.64129V22.1465Z" fill="white"/>
<path d="M15.6495 16.106L8.12025 23.816H8.01672V23.71L15.546 16L15.6495 16.106Z" fill="url(#paint0_linear_2026_5851)"/>
<path d="M23.2852 8.18359V8.2896L19.6141 12.0447L15.7559 15.9996L15.6484 15.8895L19.5145 11.9387L23.1776 8.18359H23.2852Z" fill="url(#paint1_linear_2026_5851)"/>
<path d="M15.6496 15.8895L15.5461 15.9996L8.01678 8.2896V8.18359H8.12031L15.6496 15.8895Z" fill="url(#paint2_linear_2026_5851)"/>
<path d="M23.2852 23.71V23.816H23.1776L15.6484 16.106L15.7559 16L23.2852 23.71Z" fill="url(#paint3_linear_2026_5851)"/>
<rect x="18" y="18" width="14" height="14" rx="2" fill="#03A66D"/>
<path d="M25.0696 29.168C24.4296 29.168 23.8616 29.056 23.3656 28.832C22.8776 28.6 22.4936 28.268 22.2136 27.836C21.9336 27.404 21.7936 26.876 21.7936 26.252V25.94H23.2216V26.252C23.2216 26.804 23.3896 27.216 23.7256 27.488C24.0616 27.76 24.5096 27.896 25.0696 27.896C25.6376 27.896 26.0656 27.78 26.3536 27.548C26.6416 27.316 26.7856 27.016 26.7856 26.648C26.7856 26.4 26.7176 26.2 26.5816 26.048C26.4456 25.888 26.2456 25.76 25.9816 25.664C25.7256 25.568 25.4136 25.476 25.0456 25.388L24.6856 25.316C24.1336 25.188 23.6536 25.028 23.2456 24.836C22.8456 24.636 22.5376 24.38 22.3216 24.068C22.1056 23.756 21.9976 23.348 21.9976 22.844C21.9976 22.34 22.1176 21.908 22.3576 21.548C22.5976 21.188 22.9376 20.912 23.3776 20.72C23.8176 20.528 24.3336 20.432 24.9256 20.432C25.5176 20.432 26.0456 20.532 26.5096 20.732C26.9736 20.932 27.3376 21.232 27.6016 21.632C27.8736 22.032 28.0096 22.532 28.0096 23.132V23.528H26.5816V23.132C26.5816 22.788 26.5136 22.512 26.3776 22.304C26.2416 22.096 26.0496 21.944 25.8016 21.848C25.5536 21.752 25.2616 21.704 24.9256 21.704C24.4296 21.704 24.0536 21.8 23.7976 21.992C23.5416 22.184 23.4136 22.456 23.4136 22.808C23.4136 23.032 23.4696 23.224 23.5816 23.384C23.7016 23.536 23.8736 23.664 24.0976 23.768C24.3296 23.864 24.6176 23.948 24.9616 24.02L25.3216 24.104C25.8976 24.232 26.4016 24.396 26.8336 24.596C27.2656 24.788 27.6016 25.044 27.8416 25.364C28.0896 25.684 28.2136 26.1 28.2136 26.612C28.2136 27.116 28.0816 27.56 27.8176 27.944C27.5616 28.328 27.1976 28.628 26.7256 28.844C26.2616 29.06 25.7096 29.168 25.0696 29.168Z" fill="#FBFBFB"/>
<defs>
<linearGradient id="paint0_linear_2026_5851" x1="15.5983" y1="16.054" x2="9.47993" y2="22.029" gradientUnits="userSpaceOnUse">
<stop stop-color="white" stop-opacity="0"/>
<stop offset="1" stop-color="white"/>
</linearGradient>
<linearGradient id="paint1_linear_2026_5851" x1="15.7027" y1="15.9455" x2="19.5856" y2="12.1536" gradientUnits="userSpaceOnUse">
<stop offset="0.0176145" stop-color="white" stop-opacity="0"/>
<stop offset="1" stop-color="white"/>
</linearGradient>
<linearGradient id="paint2_linear_2026_5851" x1="15.5652" y1="15.9116" x2="10.679" y2="11.1399" gradientUnits="userSpaceOnUse">
<stop stop-color="white" stop-opacity="0"/>
<stop offset="1" stop-color="white"/>
</linearGradient>
<linearGradient id="paint3_linear_2026_5851" x1="15.6864" y1="16.0373" x2="18.4781" y2="18.7636" gradientUnits="userSpaceOnUse">
<stop stop-color="white" stop-opacity="0"/>
<stop offset="0.9809" stop-color="white"/>
</linearGradient>
</defs>
</svg>
