<svg width="20" height="20" viewBox="0 0 20 20" fill="none" xmlns="http://www.w3.org/2000/svg">
<path d="M14.0909 11.8337C13.9703 11.8337 13.8547 11.7854 13.7695 11.6994C13.6842 11.6135 13.6364 11.4969 13.6364 11.3753C13.6364 11.2538 13.6842 11.1372 13.7695 11.0512C13.8547 10.9653 13.9703 10.917 14.0909 10.917C14.2115 10.917 14.3271 10.9653 14.4123 11.0512C14.4976 11.1372 14.5454 11.2538 14.5454 11.3753C14.5454 11.4969 14.4976 11.6135 14.4123 11.6994C14.3271 11.7854 14.2115 11.8337 14.0909 11.8337Z" fill="white"/>
<path fill-rule="evenodd" clip-rule="evenodd" d="M14.3322 11.6196C14.334 11.6178 14.3358 11.6161 14.3376 11.6143C14.4016 11.5497 14.4364 11.4635 14.4364 11.375C14.4364 11.2866 14.4016 11.2004 14.3376 11.1358C14.3358 11.134 14.334 11.1322 14.3322 11.1305C14.2684 11.0689 14.1821 11.0334 14.091 11.0334C13.9998 11.0334 13.9135 11.0689 13.8497 11.1305C13.8479 11.1322 13.8461 11.134 13.8444 11.1358C13.7803 11.2004 13.7455 11.2866 13.7455 11.375C13.7455 11.4635 13.7803 11.5497 13.8444 11.6143C13.8461 11.6161 13.8479 11.6178 13.8497 11.6196C13.9135 11.6811 13.9998 11.7167 14.091 11.7167C14.1821 11.7167 14.2684 11.6811 14.3322 11.6196ZM13.2015 10.4876C13.4363 10.2509 13.7561 10.1167 14.091 10.1167C14.4258 10.1167 14.7457 10.2509 14.9804 10.4876C15.2149 10.7241 15.3455 11.0434 15.3455 11.375C15.3455 11.7066 15.2149 12.026 14.9804 12.2625C14.7457 12.4992 14.4258 12.6334 14.091 12.6334C13.7561 12.6334 13.4363 12.4992 13.2015 12.2625C12.967 12.026 12.8364 11.7066 12.8364 11.375C12.8364 11.0434 12.967 10.7241 13.2015 10.4876Z" fill="white"/>
<path fill-rule="evenodd" clip-rule="evenodd" d="M12.9606 1.59265C13.3492 1.48824 13.7564 1.47526 14.1509 1.55476C14.5453 1.63426 14.9158 1.80401 15.2339 2.05042C15.552 2.29681 15.8091 2.61318 15.9859 2.97473C16.1626 3.33626 16.2544 3.73356 16.2546 4.13602V5.41682H14.6546V4.13646C14.6546 4.13639 14.6546 4.13654 14.6546 4.13646C14.6545 3.97709 14.6181 3.81989 14.5485 3.67749C14.4788 3.53504 14.3779 3.41126 14.2541 3.31533C14.1303 3.21943 13.9868 3.15386 13.8347 3.12321C13.6827 3.09257 13.5258 3.09755 13.3759 3.13781C13.3759 3.13782 13.3759 3.1378 13.3759 3.13781L3.3759 5.82639C3.16034 5.88431 2.9684 6.01279 2.83089 6.19327C2.6933 6.37386 2.61814 6.59613 2.61819 6.82556V7.25016H1.01819V6.82592C1.01819 6.82586 1.01819 6.82598 1.01819 6.82592C1.0181 6.24726 1.20755 5.68385 1.55819 5.22361C1.90894 4.76325 2.40164 4.43145 2.96048 4.28126C2.96044 4.28127 2.96051 4.28125 2.96048 4.28126L12.9606 1.59265Z" fill="white"/>
<path fill-rule="evenodd" clip-rule="evenodd" d="M1.01819 6.4167C1.01819 5.42259 1.82408 4.6167 2.81819 4.6167H17.1818C18.1759 4.6167 18.9818 5.42259 18.9818 6.4167V16.3334C18.9818 17.3275 18.1759 18.1334 17.1818 18.1334H2.81819C1.82408 18.1334 1.01819 17.3275 1.01819 16.3334V6.4167ZM2.81819 6.2167C2.70773 6.2167 2.61819 6.30624 2.61819 6.4167V16.3334C2.61819 16.4438 2.70773 16.5334 2.81819 16.5334H17.1818C17.2923 16.5334 17.3818 16.4438 17.3818 16.3334V6.4167C17.3818 6.30624 17.2923 6.2167 17.1818 6.2167H2.81819Z" fill="white"/>
</svg>
